# xmcd CD database file
#
# Track frame offsets:
#	187
#	24180
#	42817
#	61392
#	86817
#	106680
#	123032
#	139775
#
# Disc length: 2150 seconds
#
# Revision: 5
# Processed by: cddbd v1.5.2PL0 Copyright (c) Steve Scherf et al.
# Submitted via: CDex 1.70beta3
#
DISCID=5a086408
DTITLE=Aretha Franklin - Through The Storm
DYEAR=1989
DGENRE=Soul
TTITLE0=Gimme Your Love
TTITLE1=Mercy
TTITLE2=He's The Boy
TTITLE3=It Isn't, It Wasn't, It Ain't Never Gonna Be
TTITLE4=Through The Storm
TTITLE5=Think (1989)
TTITLE6=Come To Me
TTITLE7=If Ever A Love There Was
EXTD=YEAR: 1989
EXTT0=
EXTT1=
EXTT2=
EXTT3=
EXTT4=
EXTT5=
EXTT6=
EXTT7=
PLAYORDER=
